<svg width="800" height="200" viewBox="0 0 680 200" xmlns="http://www.w3.org/2000/svg" style="background:#050508">

  <!-- ICON MARK -->
  <polygon points="100,20 130,37 130,71 100,88 70,71 70,37" fill="none" stroke="#00ff88" stroke-width="2"/>
  <polygon points="100,35 118,45 118,65 100,75 82,65 82,45" fill="none" stroke="#00ff88" stroke-width="1.5" opacity="0.5"/>
  <polygon points="100,45 112,54 100,63 88,54" fill="#00ff88" opacity="0.9"/>
  <line x1="100" y1="20" x2="100" y2="35" stroke="#0088ff" stroke-width="1.5"/>
  <line x1="100" y1="75" x2="100" y2="88" stroke="#0088ff" stroke-width="1.5"/>
  <circle cx="70" cy="54" r="2.5" fill="#0088ff"/>
  <circle cx="130" cy="54" r="2.5" fill="#0088ff"/>

  <!-- WORDMARK -->
  <text x="155" y="52" font-family="'Arial Black', sans-serif" font-size="32" font-weight="900" letter-spacing="6" fill="#ffffff">CAMPIONE</text>
  <text x="157" y="76" font-family="'Arial', sans-serif" font-size="14" font-weight="400" letter-spacing="8" fill="#00ff88">INFRASTRUCTURE</text>
  <line x1="155" y1="84" x2="620" y2="84" stroke="#1a1a2e" stroke-width="1"/>
  <text x="157" y="100" font-family="'Arial', sans-serif" font-size="11" font-weight="400" letter-spacing="3" fill="#555570">ISO 20022 ALIGNED · CLARITY ACT READY · US BASED</text>

  <!-- NETWORK BADGES -->
  <rect x="155" y="120" width="52" height="18" rx="9" fill="#0088ff" opacity="0.15"/>
  <rect x="155" y="120" width="52" height="18" rx="9" fill="none" stroke="#0088ff" stroke-width="0.5"/>
  <text x="181" y="133" font-family="'Arial', sans-serif" font-size="9" font-weight="700" letter-spacing="1" fill="#0088ff" text-anchor="middle">XRPL</text>

  <rect x="214" y="120" width="58" height="18" rx="9" fill="#00ff88" opacity="0.1"/>
  <rect x="214" y="120" width="58" height="18" rx="9" fill="none" stroke="#00ff88" stroke-width="0.5"/>
  <text x="243" y="133" font-family="'Arial', sans-serif" font-size="9" font-weight="700" letter-spacing="1" fill="#00ff88" text-anchor="middle">STELLAR</text>

  <rect x="279" y="120" width="72" height="18" rx="9" fill="#375BD2" opacity="0.15"/>
  <rect x="279" y="120" width="72" height="18" rx="9" fill="none" stroke="#375BD2" stroke-width="0.5"/>
  <text x="315" y="133" font-family="'Arial', sans-serif" font-size="9" font-weight="700" letter-spacing="1" fill="#375BD2" text-anchor="middle">CHAINLINK</text>

  <rect x="358" y="120" width="60" height="18" rx="9" fill="#F7931A" opacity="0.15"/>
  <rect x="358" y="120" width="60" height="18" rx="9" fill="none" stroke="#F7931A" stroke-width="0.5"/>
  <text x="388" y="133" font-family="'Arial', sans-serif" font-size="9" font-weight="700" letter-spacing="1" fill="#F7931A" text-anchor="middle">BITCOIN</text>

  <rect x="425" y="120" width="60" height="18" rx="9" fill="#8B8BFF" opacity="0.15"/>
  <rect x="425" y="120" width="60" height="18" rx="9" fill="none" stroke="#8B8BFF" stroke-width="0.5"/>
  <text x="455" y="133" font-family="'Arial', sans-serif" font-size="9" font-weight="700" letter-spacing="1" fill="#8B8BFF" text-anchor="middle">COSMOS</text>

  <rect x="492" y="120" width="75" height="18" rx="9" fill="#6F4CFF" opacity="0.15"/>
  <rect x="492" y="120" width="75" height="18" rx="9" fill="none" stroke="#6F4CFF" stroke-width="0.5"/>
  <text x="529" y="133" font-family="'Arial', sans-serif" font-size="9" font-weight="700" letter-spacing="1" fill="#6F4CFF" text-anchor="middle">THE GRAPH</text>

  <text x="340" y="170" font-family="'Arial', sans-serif" font-size="10" font-weight="400" letter-spacing="4" fill="#333350" text-anchor="middle">MAXRESULTS4U BUSINESS SOLUTIONS · EST. 2024 · LAND O LAKES, FL</text>

</svg>
